<svg width="16" height="16" viewBox="0 0 16 16" fill="none" xmlns="http://www.w3.org/2000/svg">
<g clip-path="url(#clip0_110_896)">
<path d="M8.69705 10.378C8.50178 10.5733 8.50178 10.8899 8.69705 11.0851C8.89231 11.2803 9.20885 11.2803 9.40411 11.0851L8.69705 10.378ZM10.0345 10.4547C10.2298 10.2595 10.2298 9.94285 10.0345 9.74759C9.83925 9.55239 9.52265 9.55239 9.32738 9.74759L10.0345 10.4547ZM10.5881 8.48692C10.3928 8.68219 10.3928 8.99872 10.5881 9.19398C10.7834 9.38925 11.1 9.38925 11.2952 9.19398L10.5881 8.48692ZM12.766 7.72318C12.9613 7.52792 12.9613 7.21132 12.766 7.01605C12.5708 6.82079 12.2542 6.82079 12.059 7.01605L12.766 7.72318ZM1.97319 10.378C1.77793 10.5733 1.77793 10.8899 1.97319 11.0851C2.16846 11.2803 2.48504 11.2803 2.6803 11.0851L1.97319 10.378ZM9.40411 11.0851L10.0345 10.4547L9.32738 9.74759L8.69705 10.378L9.40411 11.0851ZM11.2952 9.19398L12.766 7.72318L12.059 7.01605L10.5881 8.48692L11.2952 9.19398ZM2.6803 11.0851L11.0851 2.68028L10.378 1.97318L1.97319 10.378L2.6803 11.0851ZM4.25278 5.5477L5.54776 4.25272L4.84065 3.54561L3.54567 4.84059L4.25278 5.5477ZM11.7472 10.4521L10.4522 11.7471L11.1593 12.4543L12.4543 11.1593L11.7472 10.4521ZM10.4522 11.7471C9.63271 12.5667 9.04725 13.151 8.54771 13.5491C8.05545 13.9415 7.69751 14.1101 7.34445 14.1516L7.46118 15.1448C8.07745 15.0724 8.60978 14.7785 9.17098 14.3311C9.72498 13.8896 10.3564 13.2571 11.1593 12.4543L10.4522 11.7471ZM3.32985 12.6701C4.08399 13.4242 4.68247 14.024 5.21579 14.4367C5.76014 14.8579 6.28755 15.1258 6.90945 15.1615L6.96671 14.1631C6.62439 14.1435 6.28795 14.0019 5.82777 13.6459C5.35656 13.2812 4.80979 12.7358 4.03695 11.9629L3.32985 12.6701ZM7.34445 14.1516C7.21798 14.1665 7.09158 14.1703 6.96671 14.1631L6.90945 15.1615C7.09298 15.172 7.27758 15.1663 7.46118 15.1448L7.34445 14.1516ZM11.963 4.03689C12.7358 4.80973 13.2812 5.3565 13.6459 5.8277C14.002 6.28789 14.1435 6.62432 14.1631 6.96665L15.1615 6.90938C15.1258 6.28748 14.858 5.76008 14.4368 5.21573C14.024 4.6824 13.4242 4.08393 12.6701 3.32978L11.963 4.03689ZM12.4543 11.1593C13.2572 10.3563 13.8896 9.72492 14.3312 9.17092C14.7785 8.60972 15.0724 8.07738 15.1448 7.46112L14.1516 7.34445C14.1102 7.69745 13.9416 8.05538 13.5492 8.54765C13.151 9.04718 12.5667 9.63265 11.7472 10.4521L12.4543 11.1593ZM14.1631 6.96665C14.1703 7.09152 14.1665 7.21792 14.1516 7.34445L15.1448 7.46112C15.1664 7.27752 15.172 7.09292 15.1615 6.90938L14.1631 6.96665ZM5.54776 4.25272C6.36727 3.43321 6.95271 2.84885 7.45225 2.45072C7.94451 2.05834 8.30245 1.88972 8.65551 1.84825L8.53878 0.855078C7.92251 0.927485 7.39018 1.2214 6.82898 1.6687C6.27495 2.11025 5.64356 2.7427 4.84065 3.54561L5.54776 4.25272ZM12.6701 3.32978C11.916 2.57564 11.3175 1.97582 10.7842 1.56314C10.2398 1.14192 9.71238 0.874058 9.09051 0.838398L9.03331 1.83676C9.37558 1.85638 9.71198 1.99792 10.1722 2.35401C10.6434 2.71863 11.1902 3.26406 11.963 4.03689L12.6701 3.32978ZM8.65551 1.84825C8.78198 1.83339 8.90838 1.8296 9.03331 1.83676L9.09051 0.838398C8.90698 0.827878 8.72238 0.833511 8.53878 0.855078L8.65551 1.84825ZM3.54567 4.84059C2.74277 5.6435 2.11031 6.2749 1.66877 6.82892C1.22146 7.39012 0.927546 7.92245 0.855139 8.53872L1.84831 8.65545C1.88978 8.30238 2.05841 7.94445 2.45078 7.45218C2.84891 6.95265 3.43327 6.3672 4.25278 5.5477L3.54567 4.84059ZM4.03695 11.9629C3.26412 11.1901 2.71869 10.6433 2.35407 10.1721C1.99798 9.71192 1.85645 9.37552 1.83682 9.03325L0.838459 9.09045C0.874119 9.71232 1.14198 10.2398 1.5632 10.7841C1.97589 11.3175 2.5757 11.9159 3.32985 12.6701L4.03695 11.9629ZM0.855139 8.53872C0.833572 8.72232 0.827939 8.90692 0.838459 9.09045L1.83682 9.03325C1.82966 8.90832 1.83345 8.78192 1.84831 8.65545L0.855139 8.53872Z" fill="#999999"/>
<path d="M2.66669 14.6667H13.3334" stroke="#999999" stroke-width="1.5" stroke-linecap="round"/>
</g>
<defs>
<clipPath id="clip0_110_896">
<rect width="16" height="16" fill="white"/>
</clipPath>
</defs>
</svg>
