<svg width="22" height="22" viewBox="0 0 22 22" fill="none" xmlns="http://www.w3.org/2000/svg">
<path d="M2.31908 13.5388C2.12416 14.8167 2.99566 15.7036 4.0627 16.1457C8.15357 17.8404 13.8464 17.8404 17.9372 16.1457C19.0043 15.7036 19.8758 14.8167 19.6809 13.5388C19.5611 12.7535 18.9688 12.0996 18.5299 11.461C17.955 10.6144 17.8979 9.69086 17.8978 8.70837C17.8978 4.91141 14.8096 1.83337 11 1.83337C7.19044 1.83337 4.10219 4.91141 4.10219 8.70837C4.1021 9.69086 4.04498 10.6144 3.47013 11.461C3.03126 12.0996 2.43888 12.7535 2.31908 13.5388Z" stroke="#999999" stroke-width="1.5" stroke-linecap="round" stroke-linejoin="round"/>
<path d="M7.33334 17.4166C7.75363 18.9981 9.23589 20.1666 11 20.1666C12.7641 20.1666 14.2464 18.9981 14.6667 17.4166" stroke="#999999" stroke-width="1.5" stroke-linecap="round" stroke-linejoin="round"/>
<rect x="14" width="8" height="8" rx="4" fill="#E73959"/>
</svg>
