<svg width="16" height="16" viewBox="0 0 16 16" fill="none" xmlns="http://www.w3.org/2000/svg">
<g clip-path="url(#clip0_110_869)">
<path d="M1.33331 3.99992C1.33331 2.74284 1.33331 2.1143 1.72384 1.72378C2.11436 1.33325 2.7429 1.33325 3.99998 1.33325C5.25706 1.33325 5.8856 1.33325 6.27612 1.72378C6.66665 2.1143 6.66665 2.74284 6.66665 3.99992V5.33325C6.66665 6.59033 6.66665 7.21885 6.27612 7.60938C5.8856 7.99992 5.25706 7.99992 3.99998 7.99992C2.7429 7.99992 2.11436 7.99992 1.72384 7.60938C1.33331 7.21885 1.33331 6.59033 1.33331 5.33325V3.99992Z" stroke="#999999" stroke-width="1.5"/>
<path d="M1.33331 12.6667C1.33331 12.0455 1.33331 11.7349 1.43481 11.4898C1.57013 11.1631 1.8297 10.9035 2.1564 10.7682C2.40143 10.6667 2.71206 10.6667 3.33331 10.6667H4.66665C5.2879 10.6667 5.59853 10.6667 5.84356 10.7682C6.17026 10.9035 6.42983 11.1631 6.56515 11.4898C6.66665 11.7349 6.66665 12.0455 6.66665 12.6667C6.66665 13.288 6.66665 13.5986 6.56515 13.8437C6.42983 14.1703 6.17026 14.4299 5.84356 14.5653C5.59853 14.6667 5.2879 14.6667 4.66665 14.6667H3.33331C2.71206 14.6667 2.40143 14.6667 2.1564 14.5653C1.8297 14.4299 1.57013 14.1703 1.43481 13.8437C1.33331 13.5986 1.33331 13.288 1.33331 12.6667Z" stroke="#999999" stroke-width="1.5"/>
<path d="M9.33331 10.6667C9.33331 9.4096 9.33331 8.78107 9.72385 8.39053C10.1144 8 10.7429 8 12 8C13.257 8 13.8856 8 14.2761 8.39053C14.6666 8.78107 14.6666 9.4096 14.6666 10.6667V12C14.6666 13.2571 14.6666 13.8856 14.2761 14.2761C13.8856 14.6667 13.257 14.6667 12 14.6667C10.7429 14.6667 10.1144 14.6667 9.72385 14.2761C9.33331 13.8856 9.33331 13.2571 9.33331 12V10.6667Z" stroke="#999999" stroke-width="1.5"/>
<path d="M9.33331 3.33325C9.33331 2.712 9.33331 2.40137 9.43478 2.15634C9.57011 1.82964 9.82971 1.57007 10.1564 1.43475C10.4014 1.33325 10.712 1.33325 11.3333 1.33325H12.6666C13.2879 1.33325 13.5985 1.33325 13.8436 1.43475C14.1702 1.57007 14.4298 1.82964 14.5652 2.15634C14.6666 2.40137 14.6666 2.712 14.6666 3.33325C14.6666 3.95451 14.6666 4.26513 14.5652 4.51017C14.4298 4.83687 14.1702 5.09643 13.8436 5.23176C13.5985 5.33325 13.2879 5.33325 12.6666 5.33325H11.3333C10.712 5.33325 10.4014 5.33325 10.1564 5.23176C9.82971 5.09643 9.57011 4.83687 9.43478 4.51017C9.33331 4.26513 9.33331 3.95451 9.33331 3.33325Z" stroke="#999999" stroke-width="1.5"/>
</g>
<defs>
<clipPath id="clip0_110_869">
<rect width="16" height="16" fill="white"/>
</clipPath>
</defs>
</svg>
