<svg width="16" height="16" viewBox="0 0 16 16" fill="none" xmlns="http://www.w3.org/2000/svg">
<path d="M10.3334 8.00008C10.3334 9.28875 9.28869 10.3334 8.00002 10.3334C6.71135 10.3334 5.66669 9.28875 5.66669 8.00008C5.66669 6.71141 6.71135 5.66675 8.00002 5.66675C9.28869 5.66675 10.3334 6.71141 10.3334 8.00008Z" stroke="#999999" stroke-width="1.5"/>
<path d="M14.0073 9.39763C14.3552 9.30383 14.5292 9.2569 14.5979 9.16716C14.6666 9.0775 14.6666 8.93316 14.6666 8.64456V7.35543C14.6666 7.06683 14.6666 6.9225 14.5979 6.83283C14.5292 6.7431 14.3552 6.69616 14.0073 6.60235C12.707 6.25169 11.8932 4.8923 12.2288 3.60054C12.3211 3.24529 12.3672 3.06767 12.3232 2.96349C12.2791 2.85931 12.1527 2.78752 11.8998 2.64394L10.75 1.99112C10.5018 1.85022 10.3778 1.77978 10.2664 1.79478C10.155 1.80978 10.0294 1.93512 9.77811 2.18578C8.80531 3.15628 7.19571 3.15624 6.22287 2.18572C5.9716 1.93505 5.84597 1.80972 5.7346 1.79471C5.62324 1.77971 5.49916 1.85016 5.251 1.99105L4.10121 2.64388C3.84833 2.78745 3.72189 2.85924 3.67783 2.9634C3.63377 3.06756 3.67989 3.24521 3.77215 3.6005C4.10756 4.8923 3.29313 6.25172 1.99266 6.60236C1.64473 6.69616 1.47076 6.7431 1.40203 6.83276C1.33331 6.9225 1.33331 7.06683 1.33331 7.35543V8.64456C1.33331 8.93316 1.33331 9.0775 1.40203 9.16716C1.47075 9.2569 1.64472 9.30383 1.99266 9.39763C3.29291 9.7483 4.1067 11.1077 3.77113 12.3994C3.67884 12.7547 3.63269 12.9323 3.67675 13.0365C3.72082 13.1407 3.84726 13.2125 4.10015 13.356L5.24995 14.0089C5.49812 14.1498 5.62221 14.2202 5.73358 14.2052C5.84495 14.1902 5.97057 14.0648 6.22179 13.8142C7.19511 12.8429 8.80585 12.8428 9.77925 13.8141C10.0304 14.0648 10.156 14.1902 10.2674 14.2052C10.3788 14.2202 10.5029 14.1497 10.751 14.0088L11.9008 13.356C12.1538 13.2124 12.2802 13.1406 12.3242 13.0364C12.3683 12.9322 12.3222 12.7546 12.2298 12.3994C11.8941 11.1077 12.7072 9.74836 14.0073 9.39763Z" stroke="#999999" stroke-width="1.5" stroke-linecap="round"/>
</svg>
