<svg width="16" height="16" viewBox="0 0 16 16" fill="none" xmlns="http://www.w3.org/2000/svg">
<g clip-path="url(#clip0_147_1460)">
<path d="M1.33331 12C1.33331 10.9731 1.33331 10.4596 1.56447 10.0824C1.69381 9.87131 1.87127 9.69384 2.08233 9.56451C2.45954 9.33337 2.97302 9.33337 3.99998 9.33337C5.02694 9.33337 5.54042 9.33337 5.91763 9.56451C6.12869 9.69384 6.30615 9.87131 6.43549 10.0824C6.66665 10.4596 6.66665 10.9731 6.66665 12C6.66665 13.027 6.66665 13.5405 6.43549 13.9177C6.30615 14.1288 6.12869 14.3062 5.91763 14.4356C5.54042 14.6667 5.02694 14.6667 3.99998 14.6667C2.97302 14.6667 2.45954 14.6667 2.08233 14.4356C1.87127 14.3062 1.69381 14.1288 1.56447 13.9177C1.33331 13.5405 1.33331 13.027 1.33331 12Z" stroke="#999999" stroke-width="1.5"/>
<path d="M9.33331 12C9.33331 10.9731 9.33331 10.4596 9.56445 10.0824C9.69378 9.87131 9.87125 9.69384 10.0823 9.56451C10.4595 9.33337 10.973 9.33337 12 9.33337C13.0269 9.33337 13.5404 9.33337 13.9176 9.56451C14.1287 9.69384 14.3062 9.87131 14.4355 10.0824C14.6666 10.4596 14.6666 10.9731 14.6666 12C14.6666 13.027 14.6666 13.5405 14.4355 13.9177C14.3062 14.1288 14.1287 14.3062 13.9176 14.4356C13.5404 14.6667 13.0269 14.6667 12 14.6667C10.973 14.6667 10.4595 14.6667 10.0823 14.4356C9.87125 14.3062 9.69378 14.1288 9.56445 13.9177C9.33331 13.5405 9.33331 13.027 9.33331 12Z" stroke="#999999" stroke-width="1.5"/>
<path d="M1.33331 4.00004C1.33331 2.97308 1.33331 2.4596 1.56447 2.08239C1.69381 1.87133 1.87127 1.69387 2.08233 1.56453C2.45954 1.33337 2.97302 1.33337 3.99998 1.33337C5.02694 1.33337 5.54042 1.33337 5.91763 1.56453C6.12869 1.69387 6.30615 1.87133 6.43549 2.08239C6.66665 2.4596 6.66665 2.97308 6.66665 4.00004C6.66665 5.027 6.66665 5.54048 6.43549 5.91769C6.30615 6.12875 6.12869 6.30621 5.91763 6.43555C5.54042 6.66671 5.02694 6.66671 3.99998 6.66671C2.97302 6.66671 2.45954 6.66671 2.08233 6.43555C1.87127 6.30621 1.69381 6.12875 1.56447 5.91769C1.33331 5.54048 1.33331 5.027 1.33331 4.00004Z" stroke="#999999" stroke-width="1.5"/>
<path d="M9.33331 4.00004C9.33331 2.97308 9.33331 2.4596 9.56445 2.08239C9.69378 1.87133 9.87125 1.69387 10.0823 1.56453C10.4595 1.33337 10.973 1.33337 12 1.33337C13.0269 1.33337 13.5404 1.33337 13.9176 1.56453C14.1287 1.69387 14.3062 1.87133 14.4355 2.08239C14.6666 2.4596 14.6666 2.97308 14.6666 4.00004C14.6666 5.027 14.6666 5.54048 14.4355 5.91769C14.3062 6.12875 14.1287 6.30621 13.9176 6.43555C13.5404 6.66671 13.0269 6.66671 12 6.66671C10.973 6.66671 10.4595 6.66671 10.0823 6.43555C9.87125 6.30621 9.69378 6.12875 9.56445 5.91769C9.33331 5.54048 9.33331 5.027 9.33331 4.00004Z" stroke="#999999" stroke-width="1.5"/>
</g>
<defs>
<clipPath id="clip0_147_1460">
<rect width="16" height="16" fill="white"/>
</clipPath>
</defs>
</svg>
