<svg width="16" height="16" viewBox="0 0 16 16" fill="none" xmlns="http://www.w3.org/2000/svg">
<path d="M13.4653 2H2.53465C2.03429 2 1.78411 2 1.61089 2.11817C1.5251 2.1767 1.4542 2.25406 1.40376 2.34418C1.30191 2.52614 1.32681 2.77195 1.3766 3.26358C1.4597 4.08416 1.50125 4.49445 1.7188 4.78779C1.82721 4.93397 1.96465 5.05679 2.12274 5.14877C2.43997 5.33333 2.85755 5.33333 3.6927 5.33333H12.3072C13.1424 5.33333 13.56 5.33333 13.8772 5.14877C14.0353 5.05679 14.1728 4.93397 14.2812 4.78779C14.4987 4.49445 14.5402 4.08416 14.6234 3.26358C14.6732 2.77195 14.698 2.52614 14.5962 2.34418C14.5458 2.25406 14.4748 2.1767 14.389 2.11817C14.2158 2 13.9656 2 13.4653 2Z" stroke="#999999" stroke-width="1.5" stroke-linecap="round" stroke-linejoin="round"/>
<path d="M2 5.33325V8.69379C2 11.1951 2 12.4458 2.78105 13.2229C3.5621 13.9999 4.81917 13.9999 7.33333 13.9999H8.66667C11.1808 13.9999 12.4379 13.9999 13.2189 13.2229C14 12.4458 14 11.1951 14 8.69379V5.33325" stroke="#999999" stroke-width="1.5" stroke-linecap="round" stroke-linejoin="round"/>
<path d="M6.66669 7.33325H9.33335" stroke="#999999" stroke-width="1.5" stroke-linecap="round"/>
</svg>
