<svg width="16" height="16" viewBox="0 0 16 16" fill="none" xmlns="http://www.w3.org/2000/svg">
<g clip-path="url(#clip0_110_890)">
<path d="M13.139 5.10017C13.2438 4.99541 13.4243 4.98473 13.5304 5.10054C14.1522 5.77874 14.4964 6.28093 14.6097 6.83705C14.6749 7.15705 14.6842 7.48272 14.6371 7.79952C14.5099 8.65565 13.8162 9.34932 12.4289 10.7367L10.7367 12.4289C9.34938 13.8162 8.65571 14.5099 7.79958 14.6371C7.48278 14.6841 7.15711 14.6749 6.83711 14.6097C6.28105 14.4963 5.77892 14.1523 5.10083 13.5306C4.98487 13.4243 4.99559 13.2436 5.10047 13.1387C5.6846 12.5546 5.65684 11.5798 5.03849 10.9614C4.42012 10.3431 3.44533 10.3153 2.8612 10.8995C2.75632 11.0043 2.57558 11.0151 2.46928 10.8991C1.84762 10.221 1.50355 9.71885 1.39024 9.16278C1.32504 8.84278 1.31576 8.51712 1.36284 8.20032C1.49006 7.34418 2.18372 6.6505 3.57102 5.2632L5.26326 3.57096C6.65057 2.18366 7.34425 1.49001 8.20038 1.36277C8.51718 1.31571 8.84285 1.32498 9.16285 1.39018C9.71898 1.50351 10.2212 1.84763 10.8994 2.46943C11.0152 2.57562 11.0045 2.75613 10.8997 2.8609C10.3156 3.44502 10.3434 4.41982 10.9617 5.03818C11.58 5.65654 12.5549 5.68429 13.139 5.10017Z" stroke="#999999" stroke-width="1.5" stroke-linejoin="round"/>
<path d="M12.6667 9.99992L6 3.33325" stroke="#999999" stroke-width="1.5" stroke-linecap="round" stroke-linejoin="round"/>
</g>
<defs>
<clipPath id="clip0_110_890">
<rect width="16" height="16" fill="white"/>
</clipPath>
</defs>
</svg>
