<svg width="18" height="19" viewBox="0 0 18 19" fill="none" xmlns="http://www.w3.org/2000/svg">
<path d="M15.1485 2.75H2.8515C2.2886 2.75 2.00715 2.75 1.81228 2.88294C1.71576 2.94879 1.636 3.03582 1.57925 3.1372C1.46468 3.34191 1.49268 3.61845 1.5487 4.17153C1.64219 5.09468 1.68893 5.55626 1.93367 5.88626C2.05563 6.05071 2.21026 6.18889 2.38811 6.29236C2.74499 6.5 3.21476 6.5 4.15431 6.5H13.8457C14.7852 6.5 15.255 6.5 15.6119 6.29236C15.7898 6.18889 15.9444 6.05071 16.0664 5.88626C16.3111 5.55626 16.3578 5.09468 16.4513 4.17153C16.5074 3.61845 16.5353 3.34191 16.4207 3.1372C16.364 3.03582 16.2842 2.94879 16.1877 2.88294C15.9929 2.75 15.7114 2.75 15.1485 2.75Z" stroke="#E73959" stroke-width="1.5" stroke-linecap="round" stroke-linejoin="round"/>
<path d="M2.25 6.5V10.2806C2.25 13.0946 2.25 14.5016 3.12868 15.3758C4.00736 16.25 5.42157 16.25 8.25 16.25H9.75C12.5784 16.25 13.9927 16.25 14.8713 15.3758C15.75 14.5016 15.75 13.0946 15.75 10.2806V6.5" stroke="#E73959" stroke-width="1.5" stroke-linecap="round" stroke-linejoin="round"/>
<path d="M7.5 8.75H10.5" stroke="#E73959" stroke-width="1.5" stroke-linecap="round"/>
</svg>
