<svg width="18" height="19" viewBox="0 0 18 19" fill="none" xmlns="http://www.w3.org/2000/svg">
<path d="M1.5 5C1.5 3.58579 1.5 2.87868 1.93934 2.43934C2.37868 2 3.08579 2 4.5 2C5.91421 2 6.62132 2 7.06066 2.43934C7.5 2.87868 7.5 3.58579 7.5 5V6.5C7.5 7.91421 7.5 8.6213 7.06066 9.06065C6.62132 9.5 5.91421 9.5 4.5 9.5C3.08579 9.5 2.37868 9.5 1.93934 9.06065C1.5 8.6213 1.5 7.91421 1.5 6.5V5Z" stroke="#E73959" stroke-width="1.5"/>
<path d="M1.5 14.75C1.5 14.0511 1.5 13.7017 1.61418 13.426C1.76642 13.0585 2.05844 12.7664 2.42597 12.6142C2.70164 12.5 3.05109 12.5 3.75 12.5H5.25C5.94891 12.5 6.29837 12.5 6.57403 12.6142C6.94157 12.7664 7.23358 13.0585 7.38582 13.426C7.5 13.7017 7.5 14.0511 7.5 14.75C7.5 15.4489 7.5 15.7983 7.38582 16.074C7.23358 16.4415 6.94157 16.7336 6.57403 16.8858C6.29837 17 5.94891 17 5.25 17H3.75C3.05109 17 2.70164 17 2.42597 16.8858C2.05844 16.7336 1.76642 16.4415 1.61418 16.074C1.5 15.7983 1.5 15.4489 1.5 14.75Z" stroke="#E73959" stroke-width="1.5"/>
<path d="M10.5 12.5C10.5 11.0858 10.5 10.3787 10.9394 9.93935C11.3787 9.5 12.0858 9.5 13.5 9.5C14.9142 9.5 15.6213 9.5 16.0606 9.93935C16.5 10.3787 16.5 11.0858 16.5 12.5V14C16.5 15.4142 16.5 16.1213 16.0606 16.5606C15.6213 17 14.9142 17 13.5 17C12.0858 17 11.3787 17 10.9394 16.5606C10.5 16.1213 10.5 15.4142 10.5 14V12.5Z" stroke="#E73959" stroke-width="1.5"/>
<path d="M10.5 4.25C10.5 3.55109 10.5 3.20164 10.6141 2.92597C10.7664 2.55844 11.0585 2.26642 11.426 2.11418C11.7017 2 12.0511 2 12.75 2H14.25C14.9489 2 15.2983 2 15.574 2.11418C15.9415 2.26642 16.2336 2.55844 16.3858 2.92597C16.5 3.20164 16.5 3.55109 16.5 4.25C16.5 4.94891 16.5 5.29836 16.3858 5.57403C16.2336 5.94156 15.9415 6.23358 15.574 6.38582C15.2983 6.5 14.9489 6.5 14.25 6.5H12.75C12.0511 6.5 11.7017 6.5 11.426 6.38582C11.0585 6.23358 10.7664 5.94156 10.6141 5.57403C10.5 5.29836 10.5 4.94891 10.5 4.25Z" stroke="#E73959" stroke-width="1.5"/>
</svg>
