<svg width="18" height="19" viewBox="0 0 18 19" fill="none" xmlns="http://www.w3.org/2000/svg">
<path d="M4.93318 12.1112C3.8721 12.743 1.09002 14.0331 2.7845 15.6475C3.61223 16.436 4.53412 17 5.69315 17H12.3068C13.4659 17 14.3878 16.436 15.2155 15.6475C16.91 14.0331 14.1279 12.743 13.0668 12.1112C10.5786 10.6296 7.42139 10.6296 4.93318 12.1112Z" stroke="#E73959" stroke-width="1.5" stroke-linecap="round" stroke-linejoin="round"/>
<path d="M12.375 5.375C12.375 7.23896 10.864 8.75 9 8.75C7.13604 8.75 5.625 7.23896 5.625 5.375C5.625 3.51104 7.13604 2 9 2C10.864 2 12.375 3.51104 12.375 5.375Z" stroke="#E73959" stroke-width="1.5"/>
</svg>
