<svg width="18" height="19" viewBox="0 0 18 19" fill="none" xmlns="http://www.w3.org/2000/svg">
<path d="M9.0015 7.25C8.17305 7.25 7.5015 7.75368 7.5015 8.375C7.5015 8.9963 8.17305 9.5 9.0015 9.5C9.82987 9.5 10.5015 10.0037 10.5015 10.625C10.5015 11.2463 9.82987 11.75 9.0015 11.75M9.0015 7.25C9.6546 7.25 10.2102 7.56305 10.4161 8M9.0015 7.25V6.5M9.0015 11.75C8.34832 11.75 7.79272 11.4369 7.58685 11M9.0015 11.75V12.5" stroke="#E73959" stroke-width="1.5" stroke-linecap="round"/>
<path d="M9.75 2.375C9.75 2.375 9.51292 2.375 9 2.375C5.64124 2.375 3.96187 2.375 2.91843 3.41844C1.875 4.46187 1.875 6.14124 1.875 9.5C1.875 12.8587 1.875 14.5381 2.91843 15.5816C3.96187 16.625 5.64124 16.625 9 16.625C12.3587 16.625 14.0381 16.625 15.0816 15.5816C16.125 14.5381 16.125 12.8587 16.125 9.5C16.125 8.98708 16.125 8.75 16.125 8.75" stroke="#E73959" stroke-width="1.5" stroke-linecap="round"/>
<path d="M12.3226 5.35069C12.1019 5.56933 12.1003 5.92549 12.3189 6.14617C12.5376 6.36685 12.8937 6.36851 13.1144 6.14986L12.3226 5.35069ZM16.5209 2.77483C16.7416 2.55619 16.7432 2.20003 16.5246 1.97935C16.306 1.75866 15.9498 1.75701 15.7291 1.97566L16.5209 2.77483ZM15.7424 6.68458C16.0531 6.68883 16.3083 6.44046 16.3126 6.12983C16.3169 5.8192 16.0685 5.56393 15.7578 5.55968L15.7424 6.68458ZM12.9407 2.74254C12.9365 2.4319 12.6812 2.18356 12.3706 2.18782C12.0599 2.1921 11.8116 2.44738 11.8159 2.75801L12.9407 2.74254ZM13.1144 6.14986L16.5209 2.77483L15.7291 1.97566L12.3226 5.35069L13.1144 6.14986ZM13.2019 5.40109C13.164 5.39439 13.1434 5.38021 13.1318 5.36863C13.1202 5.35704 13.106 5.33641 13.0993 5.29847L11.9915 5.49445C12.0846 6.02048 12.4795 6.41567 13.0057 6.50886L13.2019 5.40109ZM13.0057 6.50886C13.7667 6.64363 15.1148 6.67599 15.7424 6.68458L15.7578 5.55968C15.1072 5.55078 13.8559 5.51692 13.2019 5.40109L13.0057 6.50886ZM11.8159 2.75801C11.8245 3.38562 11.8569 4.73354 11.9915 5.49445L13.0993 5.29847C12.9836 4.64441 12.9497 3.39314 12.9407 2.74254L11.8159 2.75801Z" fill="#E73959"/>
</svg>
