<svg width="18" height="18" viewBox="0 0 18 18" fill="none" xmlns="http://www.w3.org/2000/svg">
<path d="M14.625 4.125L14.1602 11.6438C14.0414 13.5648 13.9821 14.5253 13.5006 15.2159C13.2625 15.5573 12.956 15.8455 12.6005 16.062C11.8816 16.5 10.9192 16.5 8.99452 16.5C7.06734 16.5 6.10372 16.5 5.38429 16.0612C5.0286 15.8443 4.722 15.5556 4.48401 15.2136C4.00266 14.5219 3.94459 13.5601 3.82846 11.6364L3.375 4.125" stroke="#E73959" stroke-width="1.5" stroke-linecap="round"/>
<path d="M15.75 4.125H2.25" stroke="#E73959" stroke-width="1.5" stroke-linecap="round"/>
<path d="M12.0431 4.125L11.5311 3.0688C11.191 2.3672 11.0209 2.01639 10.7276 1.79761C10.6625 1.74908 10.5937 1.7059 10.5216 1.66852C10.1968 1.5 9.80692 1.5 9.02722 1.5C8.22795 1.5 7.82827 1.5 7.49809 1.67559C7.42489 1.71451 7.35506 1.75943 7.28929 1.80988C6.99255 2.03753 6.82679 2.40116 6.49528 3.12844L6.04102 4.125" stroke="#E73959" stroke-width="1.5" stroke-linecap="round"/>
</svg>
